<svg xmlns="http://www.w3.org/2000/svg" fill="#000000" height="24" width="24" style=""><rect id="backgroundrect" width="100%" height="100%" x="0" y="0" fill="none" stroke="none" style="" class=""/>
    
    
<g class="currentLayer" style=""><title>Layer 1</title><path d="M0,0 h24 v24 H0 z" fill="none" id="svg_1" class=""/><path d="M12,16 l4,-4 h-3 v-9 h-2 v9 H8 l4,4 zm9,-13 h-6 v1.99 h6 v14.03 H3 V4.99 h6 V3 H3 c-1.1,0 -2,0.9 -2,2 v14 c0,1.1 0.9,2 2,2 h18 c1.1,0 2,-0.9 2,-2 v-14 c0,-1.1 -0.9,-2 -2,-2 z" id="svg_2" class="" fill="#1d74d1" fill-opacity="1"/></g></svg>